<?xml version="1.0" encoding="UTF-8" standalone="no"?>
<!-- Created with Inkscape (http://www.inkscape.org/) -->

<svg
   xmlns:dc="http://purl.org/dc/elements/1.1/"
   xmlns:cc="http://creativecommons.org/ns#"
   xmlns:rdf="http://www.w3.org/1999/02/22-rdf-syntax-ns#"
   xmlns:svg="http://www.w3.org/2000/svg"
   xmlns="http://www.w3.org/2000/svg"
   xmlns:sodipodi="http://sodipodi.sourceforge.net/DTD/sodipodi-0.dtd"
   xmlns:inkscape="http://www.inkscape.org/namespaces/inkscape"
   width="32"
   height="32"
   viewBox="0 0 8.4666665 8.466667"
   version="1.1"
   id="svg8"
   inkscape:export-filename="C:\Users\bened\Desktop\icon_256.png"
   inkscape:export-xdpi="768.00006"
   inkscape:export-ydpi="768.00006"
   inkscape:version="0.92.3 (2405546, 2018-03-11)"
   sodipodi:docname="icon.svg">
  <defs
     id="defs2" />
  <sodipodi:namedview
     id="base"
     pagecolor="#ffffff"
     bordercolor="#666666"
     borderopacity="1.0"
     inkscape:pageopacity="0.0"
     inkscape:pageshadow="2"
     inkscape:zoom="8.5768014"
     inkscape:cx="5.656921"
     inkscape:cy="13.408277"
     inkscape:document-units="px"
     inkscape:current-layer="layer1"
     showgrid="false"
     units="px"
     inkscape:window-width="1920"
     inkscape:window-height="1017"
     inkscape:window-x="-8"
     inkscape:window-y="-8"
     inkscape:window-maximized="1">
    <inkscape:grid
       type="xygrid"
       id="grid827" />
  </sodipodi:namedview>
  <metadata
     id="metadata5">
    <rdf:RDF>
      <cc:Work
         rdf:about="">
        <dc:format>image/svg+xml</dc:format>
        <dc:type
           rdf:resource="http://purl.org/dc/dcmitype/StillImage" />
        <dc:title></dc:title>
      </cc:Work>
    </rdf:RDF>
  </metadata>
  <g
     inkscape:label="Layer 1"
     inkscape:groupmode="layer"
     id="layer1"
     transform="translate(0,-288.53331)">
    <path
       style="fill:#efeff0;stroke:none;stroke-width:0.26458335px;stroke-linecap:butt;stroke-linejoin:miter;stroke-opacity:1;fill-opacity:1"
       d="m 1.8520834,295.41248 0.2645833,-5.55625 h 2.6458334 l 0.2645834,1.85208 1.5875,0.52917 v 2.11666 l -0.5291667,1.05834 H 3.9687501 Z"
       id="path1034"
       inkscape:connector-curvature="0" />
    <g
       aria-label="G"
       style="font-style:normal;font-variant:normal;font-weight:normal;font-stretch:normal;font-size:6.06832075px;line-height:1.25;font-family:'Times New Roman';-inkscape-font-specification:'Times New Roman, ';letter-spacing:0px;word-spacing:0px;fill:#efeff0;fill-opacity:1;stroke:none;stroke-width:0.09481751"
       id="text825-0"
       transform="translate(-0.03015593,-0.02216663)"
       inkscape:export-xdpi="95"
       inkscape:export-ydpi="95">
      <path
         sodipodi:type="inkscape:offset"
         inkscape:radius="0.5292446"
         inkscape:original="M 5.7167969 291.49805 C 5.3157979 291.49805 4.9681575 291.58401 4.6738281 291.75586 C 3.2786895 292.53558 3.2615031 295.64572 5.8125 295.69922 C 6.0831249 295.69922 6.3295404 295.67058 6.5507812 295.61328 C 6.7720221 295.55599 6.9092447 295.53997 7.1738281 295.27539 L 7.1738281 294.11328 C 7.1738281 293.89796 7.241743 293.75474 7.28125 293.68164 C 7.3385356 293.57896 7.445531 293.52734 7.5996094 293.52734 L 7.6738281 293.52734 L 7.6738281 293.41406 L 6.1171875 293.41406 L 6.1171875 293.52734 C 6.2791678 293.52734 6.3918671 293.54453 6.4550781 293.57812 C 6.5202654 293.60974 6.5680252 293.6575 6.5976562 293.7207 C 6.6292623 293.78194 6.6445312 293.91179 6.6445312 294.11328 L 6.6445312 295.27539 C 6.0325211 295.46616 5.5814584 295.51145 5.0742188 295.2793 C 4.8351996 295.13115 4.642293 294.89809 4.4941406 294.58203 C 4.1426407 293.78844 4.1961562 292.98507 4.6054688 292.3125 C 4.8721431 291.90755 5.261818 291.70508 5.7734375 291.70508 C 6.1487568 291.70508 6.4562934 291.82161 6.6953125 292.05273 C 6.8612432 292.21273 6.9968682 292.473 7.1015625 292.78906 L 7.1738281 292.78906 L 7.1015625 291.49805 L 6.9921875 291.49805 C 6.9862615 291.59882 6.9690613 291.66567 6.9414062 291.70117 C 6.9157262 291.73477 6.8832351 291.75195 6.8457031 291.75195 C 6.8081712 291.75195 6.7336673 291.73095 6.6230469 291.68945 C 6.4037814 291.60851 6.2357317 291.5569 6.1152344 291.5332 C 5.9967125 291.5095 5.8629739 291.49805 5.7167969 291.49805 z "
         style="font-style:normal;font-variant:normal;font-weight:normal;font-stretch:normal;font-family:'Times New Roman';-inkscape-font-specification:'Times New Roman, ';fill:#efeff0;fill-opacity:1;stroke-width:0.09481751"
         id="path835-8"
         d="m 5.7167969,290.96875 c -0.4751291,0 -0.9227832,0.10499 -1.3066407,0.32813 -0.9537575,0.53723 -1.3408481,1.71012 -1.1699218,2.78515 0.1713016,1.07739 1.0700828,2.11523 2.5605468,2.14649 a 0.52929753,0.52929753 0 0 0 0.011719,0 c 0.3079646,0 0.5989547,-0.033 0.8710938,-0.10352 0.1930078,-0.05 0.5435068,-0.15289 0.8652343,-0.47461 a 0.52929753,0.52929753 0 0 0 0.1542969,-0.375 v -1.16211 c 0,-0.0339 0.00987,-0.0369 0.013672,-0.0586 a 0.52929753,0.52929753 0 0 0 0.4863281,-0.52735 v -0.11328 a 0.52929753,0.52929753 0 0 0 -0.5097656,-0.52734 0.52929753,0.52929753 0 0 0 0.00977,-0.12695 l -0.072266,-1.29102 a 0.52929753,0.52929753 0 0 0 -0.5292969,-0.5 h -0.109375 a 0.52929753,0.52929753 0 0 0 -0.3828125,0.16406 c -0.1353673,-0.0452 -0.2767712,-0.0967 -0.390625,-0.11914 h -0.00195 c -0.1608663,-0.032 -0.3268569,-0.0449 -0.5,-0.0449 z m 0.056641,1.26563 c 0.2657719,0 0.4148462,0.064 0.5546875,0.19921 0.054671,0.0527 0.1517229,0.23751 0.234375,0.45118 H 6.1171875 a 0.52929753,0.52929753 0 0 0 -0.5292969,0.52929 v 0.11328 a 0.52929753,0.52929753 0 0 0 0.5292969,0.5293 c 0.00266,0 -6.543e-4,-4e-5 0.00195,0 0.00729,0.0394 -0.00391,-0.009 -0.00391,0.0566 v 0.73633 c -0.2895687,0.0599 -0.5291432,0.0658 -0.7792969,-0.041 -0.1273534,-0.0843 -0.2483146,-0.2159 -0.3574219,-0.44531 -0.2856387,-0.64767 -0.240815,-1.23581 0.074219,-1.76172 0.1795283,-0.2701 0.3515018,-0.36718 0.7207031,-0.36718 z" />
    </g>
    <g
       aria-label="T"
       style="font-style:normal;font-variant:normal;font-weight:normal;font-stretch:normal;font-size:5.05316591px;line-height:1.25;font-family:'Times New Roman';-inkscape-font-specification:'Times New Roman, ';letter-spacing:0px;word-spacing:0px;fill:#efeff0;fill-opacity:1;stroke:none;stroke-width:0.07895572"
       id="text821-4"
       transform="translate(-0.15069667,-0.02839998)"
       inkscape:export-xdpi="95"
       inkscape:export-ydpi="95">
      <path
         sodipodi:type="inkscape:offset"
         inkscape:radius="0.52930564"
         inkscape:original="M 2.2070312 289.88477 L 2.1679688 290.72461 L 2.2617188 290.72461 C 2.2732329 290.57328 2.3102317 290.45208 2.3710938 290.36328 C 2.4319554 290.27446 2.5043087 290.21489 2.5898438 290.18359 C 2.6556401 290.16059 2.7675616 290.14844 2.9238281 290.14844 L 3.3261719 290.14844 L 3.3261719 292.70508 C 3.3261719 292.89257 3.3076724 293.01371 3.2714844 293.06641 C 3.2122676 293.15192 3.1121654 293.19336 2.9707031 293.19336 L 2.8515625 293.19336 L 2.8515625 293.28516 L 4.2714844 293.28516 L 4.2714844 293.19336 L 4.1542969 293.19336 C 4.024349 293.19336 3.9277414 293.15894 3.8652344 293.08984 C 3.8208214 293.03885 3.7988281 292.91069 3.7988281 292.70508 L 3.7988281 290.14844 L 4.2714844 290.14844 C 4.4096569 290.14844 4.5196246 290.17265 4.6035156 290.21875 C 4.6890511 290.26316 4.7576018 290.33233 4.8085938 290.42773 C 4.8398468 290.48694 4.8647185 290.58644 4.8828125 290.72461 L 4.9765625 290.72461 L 4.9394531 289.88477 L 2.2070312 289.88477 z "
         style="font-style:normal;font-variant:normal;font-weight:normal;font-stretch:normal;font-family:'Times New Roman';-inkscape-font-specification:'Times New Roman, ';fill:#efeff0;fill-opacity:1;stroke-width:0.07895572"
         id="path832-3"
         d="m 2.2070312,289.35547 a 0.52935857,0.52935857 0 0 0 -0.5292968,0.50391 l -0.039062,0.83984 a 0.52935857,0.52935857 0 0 0 0.5292969,0.55469 h 0.09375 a 0.52935857,0.52935857 0 0 0 0.5273437,-0.48829 c 0.00263,-0.0345 0.00344,-0.0238 0.00781,-0.041 v 1.94141 a 0.52935857,0.52935857 0 0 0 -0.4746094,0.52734 v 0.0918 a 0.52935857,0.52935857 0 0 0 0.5292969,0.52929 h 1.4199219 a 0.52935857,0.52935857 0 0 0 0.5292968,-0.52929 v -0.0918 A 0.52935857,0.52935857 0 0 0 4.328125,292.66797 v -1.98633 c 3.881e-4,2e-5 0.015967,0.003 0.013672,0.002 -0.019581,-0.0363 0.00235,0.008 0.015625,0.10938 a 0.52935857,0.52935857 0 0 0 0.5253906,0.46094 h 0.09375 a 0.52935857,0.52935857 0 0 0 0.5292969,-0.55274 L 5.46875,289.86133 a 0.52935857,0.52935857 0 0 0 -0.5292969,-0.50586 z" />
    </g>
    <g
       transform="translate(4.3749999e-8,-3.3046875e-6)"
       aria-label="L"
       style="font-style:normal;font-variant:normal;font-weight:normal;font-stretch:normal;font-size:6.33623409px;line-height:1.25;font-family:'Times New Roman';-inkscape-font-specification:'Times New Roman, ';letter-spacing:0px;word-spacing:0px;fill:#efeff0;fill-opacity:1;stroke:none;stroke-width:0.09900366"
       id="text817-1"
       inkscape:export-xdpi="95"
       inkscape:export-ydpi="95">
      <path
         sodipodi:type="inkscape:offset"
         inkscape:radius="0.52879614"
         inkscape:original="M 1.0585938 291.44336 L 1.0585938 291.61133 L 1.171875 291.61133 C 1.3306934 291.61133 1.45081 291.65735 1.53125 291.74805 C 1.588998 291.81406 1.5878906 291.97828 1.5878906 292.24023 L 1.5878906 294.94727 C 1.5878906 295.18653 1.5960484 295.3383 1.5527344 295.4043 C 1.4764191 295.51986 1.3492565 295.57812 1.171875 295.57812 L 1.015625 295.57812 L 1.015625 295.69336 L 4.2636719 295.69336 L 4.6230469 294.55469 L 4.5195312 294.5332 C 4.4122772 294.79309 4.3064726 294.98378 4.1992188 295.10547 C 4.0919649 295.22507 3.9736923 295.30797 3.84375 295.35547 C 3.7138077 295.40297 3.4877775 295.42578 3.1660156 295.42578 L 2.859375 295.42578 C 2.5891777 295.42578 2.3269556 295.41708 2.2753906 295.39648 C 2.2238254 295.37588 2.1946729 295.34408 2.1699219 295.30078 C 2.1369209 295.23684 2.1171875 295.11846 2.1171875 294.94727 L 2.1171875 292.31055 C 2.1171875 292.06097 2.1505927 291.90389 2.1835938 291.83789 C 2.2165949 291.77192 2.2784965 291.71713 2.3671875 291.67383 C 2.4579409 291.63053 2.6913043 291.60933 2.9140625 291.61133 L 2.9140625 291.44336 L 1.0585938 291.44336 z "
         style="font-style:normal;font-variant:normal;font-weight:normal;font-stretch:normal;font-family:'Times New Roman';-inkscape-font-specification:'Times New Roman, ';fill:#efeff0;fill-opacity:1;stroke-width:0.09900366"
         id="path829-0"
         d="m 1.0585938,290.91406 a 0.52884902,0.52884902 0 0 0 -0.52929692,0.5293 v 0.16797 a 0.52884902,0.52884902 0 0 0 0.52734372,0.52929 c 3.679e-4,0.0383 0.00195,0.052 0.00195,0.0996 v 2.70704 c 0,0.0473 -1.111e-4,0.0634 0,0.10156 H 1.015625 a 0.52884902,0.52884902 0 0 0 -0.52929688,0.52929 v 0.11524 a 0.52884902,0.52884902 0 0 0 0.52929688,0.5293 h 3.2480469 a 0.52884902,0.52884902 0 0 0 0.5039062,-0.3711 l 0.359375,-1.13867 a 0.52884902,0.52884902 0 0 0 -0.3964843,-0.67578 l -0.1035157,-0.0215 A 0.52884902,0.52884902 0 0 0 4.03125,294.33203 c -0.094404,0.22875 -0.1858533,0.37296 -0.2265625,0.41992 -0.059337,0.0662 -0.1017936,0.0925 -0.1425781,0.10743 0.0045,-0.002 -0.1993231,0.0371 -0.4960938,0.0371 H 2.859375 c -0.078813,0 -0.1427728,-0.002 -0.2128906,-0.004 v -2.58203 c 0,-0.13547 0.00291,-0.13376 0.00586,-0.15821 0.070835,-0.007 0.1662488,-0.0125 0.2578124,-0.0117 a 0.52884902,0.52884902 0 0 0 0.5332032,-0.52929 v -0.16797 a 0.52884902,0.52884902 0 0 0 -0.5292969,-0.5293 z" />
    </g>
    <g
       aria-label="L"
       style="font-style:normal;font-variant:normal;font-weight:normal;font-stretch:normal;font-size:6.33623409px;line-height:1.25;font-family:'Times New Roman';-inkscape-font-specification:'Times New Roman, ';letter-spacing:0px;word-spacing:0px;fill:#000000;fill-opacity:1;stroke:none;stroke-width:0.09900366"
       id="text817"
       inkscape:export-xdpi="95"
       inkscape:export-ydpi="95">
      <path
         d="m 4.5203344,294.53258 0.1020975,0.0217 -0.3588882,1.13854 H 1.0149861 v -0.11447 h 0.1577871 c 0.1773815,0 0.30423,-0.0577 0.3805453,-0.17326 0.043314,-0.066 0.034181,-0.21863 0.034181,-0.45789 v -2.70713 c 0,-0.26195 0.00191,-0.42592 -0.055838,-0.49193 -0.08044,-0.0907 -0.2000699,-0.13613 -0.3588883,-0.13613 H 1.0583333 v -0.16828 h 1.8562855 v 0.16824 c -0.2227582,-0.002 -0.4571797,0.0186 -0.5479331,0.0619 -0.088691,0.0433 -0.1495367,0.098 -0.1825379,0.16397 -0.033001,0.066 -0.067481,0.22379 -0.067481,0.47337 v 2.63597 c 0,0.17119 0.019916,0.28876 0.052917,0.3527 0.024751,0.0433 0.054268,0.0753 0.1058332,0.0959 0.051565,0.0206 0.3133153,0.0309 0.5835126,0.0309 h 0.3062921 c 0.3217619,0 0.547614,-0.0237 0.6775563,-0.0712 0.1299423,-0.0475 0.2485405,-0.131 0.3557944,-0.2506 0.1072539,-0.12169 0.2145079,-0.31248 0.3217619,-0.57237 z"
         style="font-style:normal;font-variant:normal;font-weight:normal;font-stretch:normal;font-family:'Times New Roman';-inkscape-font-specification:'Times New Roman, ';stroke-width:0.09900366"
         id="path829"
         inkscape:connector-curvature="0"
         sodipodi:nodetypes="cccccscsscsccccccsscssssccc" />
    </g>
    <g
       aria-label="T"
       style="font-style:normal;font-variant:normal;font-weight:normal;font-stretch:normal;font-size:5.05316591px;line-height:1.25;font-family:'Times New Roman';-inkscape-font-specification:'Times New Roman, ';letter-spacing:0px;word-spacing:0px;fill:#000000;fill-opacity:1;stroke:none;stroke-width:0.07895572"
       id="text821"
       transform="translate(-0.15069667,-0.02839998)"
       inkscape:export-xdpi="95"
       inkscape:export-ydpi="95">
      <path
         d="m 4.9393543,289.88466 0.03701,0.83946 h -0.09376 c -0.018094,-0.13817 -0.042768,-0.23687 -0.074021,-0.29608 -0.050992,-0.0954 -0.1192558,-0.16532 -0.2047913,-0.20973 -0.083891,-0.0461 -0.194922,-0.0691 -0.3330945,-0.0691 H 3.7994311 v 2.55619 c 0,0.20561 0.022206,0.33392 0.066619,0.38491 0.062507,0.0691 0.1587339,0.10363 0.2886818,0.10363 H 4.270698 v 0.0913 H 2.8519625 v -0.0913 H 2.970396 c 0.1414623,0 0.2418019,-0.0428 0.3010187,-0.12831 0.036188,-0.0527 0.054282,-0.17274 0.054282,-0.36023 v -2.55619 H 2.9235161 c -0.1562665,0 -0.267298,0.0115 -0.3330944,0.0345 -0.085535,0.0313 -0.1587339,0.0913 -0.2195956,0.18012 -0.060862,0.0888 -0.09705,0.2089 -0.1085641,0.36023 H 2.168502 L 2.20798,289.8846 Z"
         style="font-style:normal;font-variant:normal;font-weight:normal;font-stretch:normal;font-family:'Times New Roman';-inkscape-font-specification:'Times New Roman, ';stroke-width:0.07895572"
         id="path832"
         inkscape:connector-curvature="0"
         sodipodi:nodetypes="cccccscscsccccscscscccccc" />
    </g>
    <g
       aria-label="G"
       style="font-style:normal;font-variant:normal;font-weight:normal;font-stretch:normal;font-size:6.06832075px;line-height:1.25;font-family:'Times New Roman';-inkscape-font-specification:'Times New Roman, ';letter-spacing:0px;word-spacing:0px;fill:#000000;fill-opacity:1;stroke:none;stroke-width:0.09481751"
       id="text825"
       transform="translate(-0.03015593,-0.0221666)"
       inkscape:export-xdpi="95"
       inkscape:export-ydpi="95">
      <path
         d="m 7.101049,291.49768 0.072857,1.29113 H 7.101049 c -0.1046943,-0.31606 -0.2400068,-0.57704 -0.4059375,-0.73704 -0.2390191,-0.23112 -0.5461884,-0.34668 -0.9215077,-0.34668 -0.5116195,0 -0.9007663,0.20247 -1.1674406,0.60742 -0.4093125,0.67257 -0.4640957,1.47611 -0.1125958,2.2697 0.1481524,0.31606 0.3417382,0.54816 0.5807573,0.69631 0.5072396,0.23215 0.9584049,0.18777 1.570415,-0.003 v -1.16151 c 0,-0.20149 -0.015803,-0.33285 -0.047409,-0.39409 -0.029631,-0.0632 -0.077039,-0.11061 -0.1422263,-0.14222 -0.063211,-0.0336 -0.1758071,-0.0504 -0.3377874,-0.0504 v -0.11259 h 1.5555998 v 0.11259 h -0.074076 c -0.1540784,0 -0.2597604,0.0514 -0.317046,0.15408 -0.039507,0.0731 -0.1078884,0.21729 -0.1078884,0.43261 v 1.16153 c -0.2645834,0.26458 -0.4027434,0.28048 -0.6239843,0.33777 -0.2212409,0.0573 -0.4671738,0.0859 -0.7377987,0.0859 -2.5509969,-0.0535 -2.5329488,-3.1641 -1.1378102,-3.94382 0.2943294,-0.17185 0.6419936,-0.25778 1.0429926,-0.25778 0.146177,0 0.2785265,0.0119 0.3970484,0.0356 0.1204973,0.0237 0.2903786,0.0761 0.5096441,0.15704 0.1106204,0.0415 0.1846966,0.0622 0.2222285,0.0622 0.037532,0 0.069138,-0.0168 0.094818,-0.0504 0.027655,-0.0355 0.044446,-0.10368 0.050372,-0.20445 z"
         style="font-style:normal;font-variant:normal;font-weight:normal;font-stretch:normal;font-family:'Times New Roman';-inkscape-font-specification:'Times New Roman, ';stroke-width:0.09481751"
         id="path835"
         inkscape:connector-curvature="0"
         sodipodi:nodetypes="ccccsccccsccccccscsccccsccsccc" />
    </g>
    <g
       transform="translate(4.4979167,-1.0243229e-5)"
       aria-label="L"
       style="font-style:normal;font-variant:normal;font-weight:normal;font-stretch:normal;font-size:6.33623409px;line-height:1.25;font-family:'Times New Roman';-inkscape-font-specification:'Times New Roman, ';letter-spacing:0px;word-spacing:0px;fill:#000000;fill-opacity:1;stroke:none;stroke-width:0.09900366"
       id="text817-4"
       inkscape:export-xdpi="95"
       inkscape:export-ydpi="95" />
    <g
       aria-label="T"
       style="font-style:normal;font-variant:normal;font-weight:normal;font-stretch:normal;font-size:5.05316591px;line-height:1.25;font-family:'Times New Roman';-inkscape-font-specification:'Times New Roman, ';letter-spacing:0px;word-spacing:0px;fill:#000000;fill-opacity:1;stroke:none;stroke-width:0.07895572"
       id="text821-0"
       transform="translate(4.34722,-0.02840004)"
       inkscape:export-xdpi="95"
       inkscape:export-ydpi="95" />
  </g>
</svg>
